<?xml version="1.0" encoding="UTF-8" standalone="no"?>
<!DOCTYPE svg PUBLIC "-//W3C//DTD SVG 1.1//EN" "http://www.w3.org/Graphics/SVG/1.1/DTD/svg11.dtd">
<!-- Generated by graphviz version 2.40.1 (20161225.0304)
 -->
<!-- Title: G Pages: 1 -->
<svg width="703pt" height="712pt" viewBox="0.00 0.00 703.05 712.40" xmlns="http://www.w3.org/2000/svg" xmlns:xlink="http://www.w3.org/1999/xlink">
<g id="graph0" class="graph" transform="scale(1 1) rotate(0) translate(4 708.4)">
<title>G</title>
<polygon fill="#ffffff" stroke="transparent" points="-4,4 -4,-708.4 699.0505,-708.4 699.0505,4 -4,4"/>
<g id="clust1" class="cluster">
<title>cluster_dominance</title>
<polygon fill="none" stroke="#000000" points="303.0505,-96.2 303.0505,-680 501.0505,-680 501.0505,-96.2 303.0505,-96.2"/>
<text text-anchor="middle" x="402.0505" y="-663.4" font-family="Times,serif" font-size="14.00" fill="#000000">dom tree</text>
</g>
<g id="clust2" class="cluster">
<title>cluster_postdominance</title>
<polygon fill="none" stroke="#000000" points="509.0505,-8 509.0505,-680 687.0505,-680 687.0505,-8 509.0505,-8"/>
<text text-anchor="middle" x="598.0505" y="-663.4" font-family="Times,serif" font-size="14.00" fill="#000000">postdom tree</text>
</g>
<!-- 0 -->
<g id="node1" class="node">
<title>0</title>
<polygon fill="none" stroke="#000000" points="106.0361,-553.5 106.0361,-703.9 218.0649,-703.9 218.0649,-553.5 106.0361,-553.5"/>
<text text-anchor="middle" x="162.0505" y="-687.3" font-family="Times,serif" font-size="14.00" fill="#000000">ENTRY</text>
<polyline fill="none" stroke="#000000" points="106.0361,-679.1 218.0649,-679.1 "/>
<text text-anchor="middle" x="162.0505" y="-662.5" font-family="Times,serif" font-size="14.00" fill="#000000">getParam rd10, 0</text>
<text text-anchor="middle" x="162.0505" y="-645.7" font-family="Times,serif" font-size="14.00" fill="#000000">getParam rd11, 1</text>
<text text-anchor="middle" x="162.0505" y="-628.9" font-family="Times,serif" font-size="14.00" fill="#000000">li rd7, #0</text>
<text text-anchor="middle" x="162.0505" y="-612.1" font-family="Times,serif" font-size="14.00" fill="#000000">li rd5, #100</text>
<text text-anchor="middle" x="162.0505" y="-595.3" font-family="Times,serif" font-size="14.00" fill="#000000">li rd6, #1</text>
<text text-anchor="middle" x="162.0505" y="-578.5" font-family="Times,serif" font-size="14.00" fill="#000000">mv rd10, rd7</text>
<text text-anchor="middle" x="162.0505" y="-561.7" font-family="Times,serif" font-size="14.00" fill="#000000">j @_LABEL_0</text>
</g>
<!-- 1 -->
<g id="node2" class="node">
<title>1</title>
<polygon fill="none" stroke="#000000" points="30.539,-433.3 30.539,-516.5 293.562,-516.5 293.562,-433.3 30.539,-433.3"/>
<text text-anchor="middle" x="162.0505" y="-499.9" font-family="Times,serif" font-size="14.00" fill="#000000">_LABEL_0</text>
<polyline fill="none" stroke="#000000" points="30.539,-491.7 293.562,-491.7 "/>
<text text-anchor="middle" x="162.0505" y="-475.1" font-family="Times,serif" font-size="14.00" fill="#000000">slt rd29, rd5, rd7</text>
<text text-anchor="middle" x="162.0505" y="-458.3" font-family="Times,serif" font-size="14.00" fill="#000000">xor rd28, rd6, rd29</text>
<text text-anchor="middle" x="162.0505" y="-441.5" font-family="Times,serif" font-size="14.00" fill="#000000">beq rd28, rd7, @_LABEL_1, @_LABEL_2</text>
</g>
<!-- 0&#45;&gt;1 -->
<g id="edge1" class="edge">
<title>0-&gt;1</title>
<path fill="none" stroke="#000000" d="M162.0505,-553.1517C162.0505,-544.1864 162.0505,-535.1965 162.0505,-526.6698"/>
<polygon fill="#000000" stroke="#000000" points="165.5506,-526.5315 162.0505,-516.5316 158.5506,-526.5316 165.5506,-526.5315"/>
</g>
<!-- 5 -->
<g id="node3" class="node">
<title>5</title>
<polygon fill="none" stroke="#000000" points="0,-338.3 0,-387.9 82.101,-387.9 82.101,-338.3 0,-338.3"/>
<text text-anchor="middle" x="41.0505" y="-371.3" font-family="Times,serif" font-size="14.00" fill="#000000">_LABEL_1</text>
<polyline fill="none" stroke="#000000" points="0,-363.1 82.101,-363.1 "/>
<text text-anchor="middle" x="41.0505" y="-346.5" font-family="Times,serif" font-size="14.00" fill="#000000">return rd10</text>
</g>
<!-- 1&#45;&gt;5 -->
<g id="edge2" class="edge">
<title>1-&gt;5</title>
<path fill="none" stroke="#000000" d="M116.9946,-433.2698C103.4177,-420.7252 88.7288,-407.1531 75.9201,-395.3184"/>
<polygon fill="#000000" stroke="#000000" points="77.9347,-392.4145 68.2147,-388.1988 73.1843,-397.5558 77.9347,-392.4145"/>
</g>
<!-- 2 -->
<g id="node4" class="node">
<title>2</title>
<polygon fill="none" stroke="#000000" points="110.8584,-329.9 110.8584,-396.3 213.2426,-396.3 213.2426,-329.9 110.8584,-329.9"/>
<text text-anchor="middle" x="162.0505" y="-379.7" font-family="Times,serif" font-size="14.00" fill="#000000">_LABEL_2</text>
<polyline fill="none" stroke="#000000" points="110.8584,-371.5 213.2426,-371.5 "/>
<text text-anchor="middle" x="162.0505" y="-354.9" font-family="Times,serif" font-size="14.00" fill="#000000">li rd30, #3</text>
<text text-anchor="middle" x="162.0505" y="-338.1" font-family="Times,serif" font-size="14.00" fill="#000000">j @_LABEL_3</text>
</g>
<!-- 1&#45;&gt;2 -->
<g id="edge3" class="edge">
<title>1-&gt;2</title>
<path fill="none" stroke="#000000" d="M162.0505,-433.2698C162.0505,-424.5239 162.0505,-415.2786 162.0505,-406.4707"/>
<polygon fill="#000000" stroke="#000000" points="165.5506,-406.3882 162.0505,-396.3882 158.5506,-406.3883 165.5506,-406.3882"/>
</g>
<!-- 6 -->
<g id="node7" class="node">
<title>6</title>
<polygon fill="none" stroke="#000000" points="2.0505,-218.1 2.0505,-267.7 56.0505,-267.7 56.0505,-218.1 2.0505,-218.1"/>
<text text-anchor="middle" x="28.9867" y="-251.1" font-family="Times,serif" font-size="14.00" fill="#000000">EXIT</text>
<polyline fill="none" stroke="#000000" points="2.0505,-242.9 55.9229,-242.9 "/>
<text text-anchor="middle" x="28.9867" y="-226.3" font-family="Times,serif" font-size="14.00" fill="#000000"> </text>
</g>
<!-- 5&#45;&gt;6 -->
<g id="edge7" class="edge">
<title>5-&gt;6</title>
<path fill="none" stroke="#000000" d="M38.5641,-338.1945C36.8183,-320.7079 34.4599,-297.0839 32.528,-277.7327"/>
<polygon fill="#000000" stroke="#000000" points="36.0099,-277.3764 31.5337,-267.7736 29.0445,-278.0719 36.0099,-277.3764"/>
</g>
<!-- 3 -->
<g id="node5" class="node">
<title>3</title>
<polygon fill="none" stroke="#000000" points="73.7325,-192.9 73.7325,-292.9 250.3685,-292.9 250.3685,-192.9 73.7325,-192.9"/>
<text text-anchor="middle" x="162.0505" y="-276.3" font-family="Times,serif" font-size="14.00" fill="#000000">_LABEL_3</text>
<polyline fill="none" stroke="#000000" points="73.7325,-268.1 250.3685,-268.1 "/>
<text text-anchor="middle" x="162.0505" y="-251.5" font-family="Times,serif" font-size="14.00" fill="#000000">mv rd11, rd10</text>
<text text-anchor="middle" x="162.0505" y="-234.7" font-family="Times,serif" font-size="14.00" fill="#000000">mv rd10, rd30</text>
<text text-anchor="middle" x="162.0505" y="-217.9" font-family="Times,serif" font-size="14.00" fill="#000000">call rd10, @myfun, ( 10 11 )</text>
<text text-anchor="middle" x="162.0505" y="-201.1" font-family="Times,serif" font-size="14.00" fill="#000000">j @_LABEL_4</text>
</g>
<!-- 2&#45;&gt;3 -->
<g id="edge4" class="edge">
<title>2-&gt;3</title>
<path fill="none" stroke="#000000" d="M162.0505,-329.6176C162.0505,-321.4413 162.0505,-312.4414 162.0505,-303.4286"/>
<polygon fill="#000000" stroke="#000000" points="165.5506,-303.2906 162.0505,-293.2906 158.5506,-303.2907 165.5506,-303.2906"/>
</g>
<!-- 4 -->
<g id="node6" class="node">
<title>4</title>
<polygon fill="none" stroke="#000000" points="145.5873,-89.5 145.5873,-155.9 254.5137,-155.9 254.5137,-89.5 145.5873,-89.5"/>
<text text-anchor="middle" x="200.0505" y="-139.3" font-family="Times,serif" font-size="14.00" fill="#000000">_LABEL_4</text>
<polyline fill="none" stroke="#000000" points="145.5873,-131.1 254.5137,-131.1 "/>
<text text-anchor="middle" x="200.0505" y="-114.5" font-family="Times,serif" font-size="14.00" fill="#000000">sub rd5, rd5, rd6</text>
<text text-anchor="middle" x="200.0505" y="-97.7" font-family="Times,serif" font-size="14.00" fill="#000000">j @_LABEL_0</text>
</g>
<!-- 3&#45;&gt;4 -->
<g id="edge5" class="edge">
<title>3-&gt;4</title>
<path fill="none" stroke="#000000" d="M177.9457,-192.6208C180.7829,-183.6465 183.7149,-174.372 186.4796,-165.6269"/>
<polygon fill="#000000" stroke="#000000" points="189.8386,-166.6127 189.5158,-156.0228 183.1642,-164.5026 189.8386,-166.6127"/>
</g>
<!-- 4&#45;&gt;1 -->
<g id="edge6" class="edge">
<title>4-&gt;1</title>
<path fill="none" stroke="#000000" d="M236.4182,-156.0707C245.5858,-166.6904 254.196,-179.1514 259.0505,-192.4 274.4944,-234.5485 266.7253,-249.1721 259.0505,-293.4 250.7054,-341.4905 245.4233,-353.9509 222.0505,-396.8 216.8474,-406.3387 210.5304,-415.9542 203.9731,-425.0206"/>
<polygon fill="#000000" stroke="#000000" points="201.068,-423.0618 197.9085,-433.1746 206.6848,-427.2393 201.068,-423.0618"/>
</g>
<!-- dom0 -->
<g id="node8" class="node">
<title>dom0</title>
<polygon fill="none" stroke="#000000" points="321.723,-610.7 321.723,-646.7 384.378,-646.7 384.378,-610.7 321.723,-610.7"/>
<text text-anchor="middle" x="353.0505" y="-624.5" font-family="Times,serif" font-size="14.00" fill="#000000">ENTRY</text>
</g>
<!-- dom1 -->
<g id="node9" class="node">
<title>dom1</title>
<polygon fill="none" stroke="#000000" points="312,-456.9 312,-492.9 394.101,-492.9 394.101,-456.9 312,-456.9"/>
<text text-anchor="middle" x="353.0505" y="-470.7" font-family="Times,serif" font-size="14.00" fill="#000000">_LABEL_0</text>
</g>
<!-- dom0&#45;&gt;dom1 -->
<g id="edge8" class="edge">
<title>dom0-&gt;dom1</title>
<path fill="none" stroke="#000000" d="M353.0505,-610.4532C353.0505,-583.9749 353.0505,-534.6554 353.0505,-503.37"/>
<polygon fill="#000000" stroke="#000000" points="356.5506,-503.1231 353.0505,-493.1231 349.5506,-503.1231 356.5506,-503.1231"/>
</g>
<!-- dom2 -->
<g id="node10" class="node">
<title>dom2</title>
<polygon fill="none" stroke="#000000" points="311,-345.1 311,-381.1 393.101,-381.1 393.101,-345.1 311,-345.1"/>
<text text-anchor="middle" x="352.0505" y="-358.9" font-family="Times,serif" font-size="14.00" fill="#000000">_LABEL_2</text>
</g>
<!-- dom1&#45;&gt;dom2 -->
<g id="edge9" class="edge">
<title>dom1-&gt;dom2</title>
<path fill="none" stroke="#000000" d="M352.8854,-456.4385C352.7274,-438.7744 352.4868,-411.8797 352.3044,-391.4899"/>
<polygon fill="#000000" stroke="#000000" points="355.802,-391.1862 352.2126,-381.218 348.8022,-391.2489 355.802,-391.1862"/>
</g>
<!-- dom5 -->
<g id="node13" class="node">
<title>dom5</title>
<polygon fill="none" stroke="#000000" points="411,-345.1 411,-381.1 493.101,-381.1 493.101,-345.1 411,-345.1"/>
<text text-anchor="middle" x="452.0505" y="-358.9" font-family="Times,serif" font-size="14.00" fill="#000000">_LABEL_1</text>
</g>
<!-- dom1&#45;&gt;dom5 -->
<g id="edge12" class="edge">
<title>dom1-&gt;dom5</title>
<path fill="none" stroke="#000000" d="M369.3983,-456.4385C385.7609,-437.9604 411.068,-409.3813 429.3691,-388.714"/>
<polygon fill="#000000" stroke="#000000" points="431.9977,-391.025 436.0069,-381.218 426.757,-386.3843 431.9977,-391.025"/>
</g>
<!-- dom3 -->
<g id="node11" class="node">
<title>dom3</title>
<polygon fill="none" stroke="#000000" points="311,-224.9 311,-260.9 393.101,-260.9 393.101,-224.9 311,-224.9"/>
<text text-anchor="middle" x="352.0505" y="-238.7" font-family="Times,serif" font-size="14.00" fill="#000000">_LABEL_3</text>
</g>
<!-- dom2&#45;&gt;dom3 -->
<g id="edge10" class="edge">
<title>dom2-&gt;dom3</title>
<path fill="none" stroke="#000000" d="M352.0505,-344.8442C352.0505,-325.2274 352.0505,-293.8031 352.0505,-271.0244"/>
<polygon fill="#000000" stroke="#000000" points="355.5506,-270.9337 352.0505,-260.9338 348.5506,-270.9338 355.5506,-270.9337"/>
</g>
<!-- dom4 -->
<g id="node12" class="node">
<title>dom4</title>
<polygon fill="none" stroke="#000000" points="311,-104.7 311,-140.7 393.101,-140.7 393.101,-104.7 311,-104.7"/>
<text text-anchor="middle" x="352.0505" y="-118.5" font-family="Times,serif" font-size="14.00" fill="#000000">_LABEL_4</text>
</g>
<!-- dom3&#45;&gt;dom4 -->
<g id="edge11" class="edge">
<title>dom3-&gt;dom4</title>
<path fill="none" stroke="#000000" d="M352.0505,-224.6442C352.0505,-205.0274 352.0505,-173.6031 352.0505,-150.8244"/>
<polygon fill="#000000" stroke="#000000" points="355.5506,-150.7337 352.0505,-140.7338 348.5506,-150.7338 355.5506,-150.7337"/>
</g>
<!-- dom6 -->
<g id="node14" class="node">
<title>dom6</title>
<polygon fill="none" stroke="#000000" points="425.0505,-224.9 425.0505,-260.9 479.0505,-260.9 479.0505,-224.9 425.0505,-224.9"/>
<text text-anchor="middle" x="451.9867" y="-238.7" font-family="Times,serif" font-size="14.00" fill="#000000">EXIT</text>
</g>
<!-- dom5&#45;&gt;dom6 -->
<g id="edge13" class="edge">
<title>dom5-&gt;dom6</title>
<path fill="none" stroke="#000000" d="M452.0505,-344.8442C452.0505,-325.2274 452.0505,-293.8031 452.0505,-271.0244"/>
<polygon fill="#000000" stroke="#000000" points="455.5506,-270.9337 452.0505,-260.9338 448.5506,-270.9338 455.5506,-270.9337"/>
</g>
<!-- pdom1 -->
<g id="node15" class="node">
<title>pdom1</title>
<polygon fill="none" stroke="#000000" points="557,-345.1 557,-381.1 639.101,-381.1 639.101,-345.1 557,-345.1"/>
<text text-anchor="middle" x="598.0505" y="-358.9" font-family="Times,serif" font-size="14.00" fill="#000000">_LABEL_0</text>
</g>
<!-- pdom0 -->
<g id="node16" class="node">
<title>pdom0</title>
<polygon fill="none" stroke="#000000" points="516.723,-224.9 516.723,-260.9 579.378,-260.9 579.378,-224.9 516.723,-224.9"/>
<text text-anchor="middle" x="548.0505" y="-238.7" font-family="Times,serif" font-size="14.00" fill="#000000">ENTRY</text>
</g>
<!-- pdom1&#45;&gt;pdom0 -->
<g id="edge14" class="edge">
<title>pdom1-&gt;pdom0</title>
<path fill="none" stroke="#000000" d="M590.4566,-344.8442C582.2227,-325.0499 568.9878,-293.2333 559.4931,-270.4081"/>
<polygon fill="#000000" stroke="#000000" points="562.6244,-268.8225 555.5521,-260.9338 556.1613,-271.5111 562.6244,-268.8225"/>
</g>
<!-- pdom4 -->
<g id="node20" class="node">
<title>pdom4</title>
<polygon fill="none" stroke="#000000" points="597,-224.9 597,-260.9 679.101,-260.9 679.101,-224.9 597,-224.9"/>
<text text-anchor="middle" x="638.0505" y="-238.7" font-family="Times,serif" font-size="14.00" fill="#000000">_LABEL_4</text>
</g>
<!-- pdom1&#45;&gt;pdom4 -->
<g id="edge18" class="edge">
<title>pdom1-&gt;pdom4</title>
<path fill="none" stroke="#000000" d="M604.1256,-344.8442C610.6832,-325.1386 621.2058,-293.5184 628.794,-270.7157"/>
<polygon fill="#000000" stroke="#000000" points="632.2126,-271.5273 632.0493,-260.9338 625.5707,-269.317 632.2126,-271.5273"/>
</g>
<!-- pdom5 -->
<g id="node17" class="node">
<title>pdom5</title>
<polygon fill="none" stroke="#000000" points="557,-456.9 557,-492.9 639.101,-492.9 639.101,-456.9 557,-456.9"/>
<text text-anchor="middle" x="598.0505" y="-470.7" font-family="Times,serif" font-size="14.00" fill="#000000">_LABEL_1</text>
</g>
<!-- pdom5&#45;&gt;pdom1 -->
<g id="edge15" class="edge">
<title>pdom5-&gt;pdom1</title>
<path fill="none" stroke="#000000" d="M598.0505,-456.4385C598.0505,-438.7744 598.0505,-411.8797 598.0505,-391.4899"/>
<polygon fill="#000000" stroke="#000000" points="601.5506,-391.2179 598.0505,-381.218 594.5506,-391.218 601.5506,-391.2179"/>
</g>
<!-- pdom3 -->
<g id="node18" class="node">
<title>pdom3</title>
<polygon fill="none" stroke="#000000" points="597,-104.7 597,-140.7 679.101,-140.7 679.101,-104.7 597,-104.7"/>
<text text-anchor="middle" x="638.0505" y="-118.5" font-family="Times,serif" font-size="14.00" fill="#000000">_LABEL_3</text>
</g>
<!-- pdom2 -->
<g id="node19" class="node">
<title>pdom2</title>
<polygon fill="none" stroke="#000000" points="597,-16.5 597,-52.5 679.101,-52.5 679.101,-16.5 597,-16.5"/>
<text text-anchor="middle" x="638.0505" y="-30.3" font-family="Times,serif" font-size="14.00" fill="#000000">_LABEL_2</text>
</g>
<!-- pdom3&#45;&gt;pdom2 -->
<g id="edge16" class="edge">
<title>pdom3-&gt;pdom2</title>
<path fill="none" stroke="#000000" d="M638.0505,-104.4249C638.0505,-92.4806 638.0505,-76.6339 638.0505,-63.0465"/>
<polygon fill="#000000" stroke="#000000" points="641.5506,-62.7517 638.0505,-52.7517 634.5506,-62.7517 641.5506,-62.7517"/>
</g>
<!-- pdom4&#45;&gt;pdom3 -->
<g id="edge17" class="edge">
<title>pdom4-&gt;pdom3</title>
<path fill="none" stroke="#000000" d="M638.0505,-224.6442C638.0505,-205.0274 638.0505,-173.6031 638.0505,-150.8244"/>
<polygon fill="#000000" stroke="#000000" points="641.5506,-150.7337 638.0505,-140.7338 634.5506,-150.7338 641.5506,-150.7337"/>
</g>
<!-- pdom6 -->
<g id="node21" class="node">
<title>pdom6</title>
<polygon fill="none" stroke="#000000" points="571.0505,-610.7 571.0505,-646.7 625.0505,-646.7 625.0505,-610.7 571.0505,-610.7"/>
<text text-anchor="middle" x="597.9867" y="-624.5" font-family="Times,serif" font-size="14.00" fill="#000000">EXIT</text>
</g>
<!-- pdom6&#45;&gt;pdom5 -->
<g id="edge19" class="edge">
<title>pdom6-&gt;pdom5</title>
<path fill="none" stroke="#000000" d="M598.0505,-610.4532C598.0505,-583.9749 598.0505,-534.6554 598.0505,-503.37"/>
<polygon fill="#000000" stroke="#000000" points="601.5506,-503.1231 598.0505,-493.1231 594.5506,-503.1231 601.5506,-503.1231"/>
</g>
</g>
</svg>