<?xml version="1.0" encoding="UTF-8" standalone="no"?>
<!DOCTYPE svg PUBLIC "-//W3C//DTD SVG 1.1//EN" "http://www.w3.org/Graphics/SVG/1.1/DTD/svg11.dtd">
<!-- Generated by graphviz version 2.40.1 (20161225.0304)
 -->
<!-- Title: G Pages: 1 -->
<svg width="696pt" height="746pt" viewBox="0.00 0.00 696.05 746.40" xmlns="http://www.w3.org/2000/svg" xmlns:xlink="http://www.w3.org/1999/xlink">
<g id="graph0" class="graph" transform="scale(1 1) rotate(0) translate(4 742.4)">
<title>G</title>
<polygon fill="#ffffff" stroke="transparent" points="-4,4 -4,-742.4 692.0505,-742.4 692.0505,4 -4,4"/>
<g id="clust1" class="cluster">
<title>cluster_dominance</title>
<polygon fill="none" stroke="#000000" points="296.0505,-121.4 296.0505,-730.4 494.0505,-730.4 494.0505,-121.4 296.0505,-121.4"/>
<text text-anchor="middle" x="395.0505" y="-713.8" font-family="Times,serif" font-size="14.00" fill="#000000">dom tree</text>
</g>
<g id="clust2" class="cluster">
<title>cluster_postdominance</title>
<polygon fill="none" stroke="#000000" points="502.0505,-8 502.0505,-730.4 680.0505,-730.4 680.0505,-8 502.0505,-8"/>
<text text-anchor="middle" x="591.0505" y="-713.8" font-family="Times,serif" font-size="14.00" fill="#000000">postdom tree</text>
</g>
<!-- 0 -->
<g id="node1" class="node">
<title>0</title>
<polygon fill="none" stroke="#000000" points="106.5361,-620.7 106.5361,-737.5 211.5649,-737.5 211.5649,-620.7 106.5361,-620.7"/>
<text text-anchor="middle" x="159.0505" y="-720.9" font-family="Times,serif" font-size="14.00" fill="#000000">ENTRY</text>
<polyline fill="none" stroke="#000000" points="106.5361,-712.7 211.5649,-712.7 "/>
<text text-anchor="middle" x="159.0505" y="-696.1" font-family="Times,serif" font-size="14.00" fill="#000000">getParam rd0, 0</text>
<text text-anchor="middle" x="159.0505" y="-679.3" font-family="Times,serif" font-size="14.00" fill="#000000">getParam rd1, 1</text>
<text text-anchor="middle" x="159.0505" y="-662.5" font-family="Times,serif" font-size="14.00" fill="#000000">li rd2, #0</text>
<text text-anchor="middle" x="159.0505" y="-645.7" font-family="Times,serif" font-size="14.00" fill="#000000">li rd3, #100</text>
<text text-anchor="middle" x="159.0505" y="-628.9" font-family="Times,serif" font-size="14.00" fill="#000000">j @_LABEL_0</text>
</g>
<!-- 1 -->
<g id="node2" class="node">
<title>1</title>
<polygon fill="none" stroke="#000000" points="31.039,-450.1 31.039,-583.7 287.062,-583.7 287.062,-450.1 31.039,-450.1"/>
<text text-anchor="middle" x="159.0505" y="-567.1" font-family="Times,serif" font-size="14.00" fill="#000000">_LABEL_0</text>
<polyline fill="none" stroke="#000000" points="31.039,-558.9 287.062,-558.9 "/>
<text text-anchor="middle" x="159.0505" y="-542.3" font-family="Times,serif" font-size="14.00" fill="#000000">li rd5, #0</text>
<text text-anchor="middle" x="159.0505" y="-525.5" font-family="Times,serif" font-size="14.00" fill="#000000">slt rd6, rd3, rd5</text>
<text text-anchor="middle" x="159.0505" y="-508.7" font-family="Times,serif" font-size="14.00" fill="#000000">li rd7, #1</text>
<text text-anchor="middle" x="159.0505" y="-491.9" font-family="Times,serif" font-size="14.00" fill="#000000">xor rd8, rd7, rd6</text>
<text text-anchor="middle" x="159.0505" y="-475.1" font-family="Times,serif" font-size="14.00" fill="#000000">li rd4, #0</text>
<text text-anchor="middle" x="159.0505" y="-458.3" font-family="Times,serif" font-size="14.00" fill="#000000">beq rd8, rd4, @_LABEL_1, @_LABEL_2</text>
</g>
<!-- 0&#45;&gt;1 -->
<g id="edge1" class="edge">
<title>0-&gt;1</title>
<path fill="none" stroke="#000000" d="M159.0505,-620.5421C159.0505,-611.9052 159.0505,-602.8978 159.0505,-593.9562"/>
<polygon fill="#000000" stroke="#000000" points="162.5506,-593.9119 159.0505,-583.9119 155.5506,-593.912 162.5506,-593.9119"/>
</g>
<!-- 5 -->
<g id="node3" class="node">
<title>5</title>
<polygon fill="none" stroke="#000000" points="0,-355.1 0,-404.7 82.101,-404.7 82.101,-355.1 0,-355.1"/>
<text text-anchor="middle" x="41.0505" y="-388.1" font-family="Times,serif" font-size="14.00" fill="#000000">_LABEL_1</text>
<polyline fill="none" stroke="#000000" points="0,-379.9 82.101,-379.9 "/>
<text text-anchor="middle" x="41.0505" y="-363.3" font-family="Times,serif" font-size="14.00" fill="#000000">return rd2</text>
</g>
<!-- 1&#45;&gt;5 -->
<g id="edge2" class="edge">
<title>1-&gt;5</title>
<path fill="none" stroke="#000000" d="M101.4332,-450.0053C90.2289,-436.997 78.9581,-423.9114 69.2382,-412.6264"/>
<polygon fill="#000000" stroke="#000000" points="71.636,-410.0471 62.4579,-404.7543 66.3321,-414.6154 71.636,-410.0471"/>
</g>
<!-- 2 -->
<g id="node4" class="node">
<title>2</title>
<polygon fill="none" stroke="#000000" points="107.8584,-346.7 107.8584,-413.1 210.2426,-413.1 210.2426,-346.7 107.8584,-346.7"/>
<text text-anchor="middle" x="159.0505" y="-396.5" font-family="Times,serif" font-size="14.00" fill="#000000">_LABEL_2</text>
<polyline fill="none" stroke="#000000" points="107.8584,-388.3 210.2426,-388.3 "/>
<text text-anchor="middle" x="159.0505" y="-371.7" font-family="Times,serif" font-size="14.00" fill="#000000">li rd9, #3</text>
<text text-anchor="middle" x="159.0505" y="-354.9" font-family="Times,serif" font-size="14.00" fill="#000000">j @_LABEL_3</text>
</g>
<!-- 1&#45;&gt;2 -->
<g id="edge3" class="edge">
<title>1-&gt;2</title>
<path fill="none" stroke="#000000" d="M159.0505,-450.0053C159.0505,-440.927 159.0505,-431.811 159.0505,-423.2957"/>
<polygon fill="#000000" stroke="#000000" points="162.5506,-423.2497 159.0505,-413.2497 155.5506,-423.2498 162.5506,-423.2497"/>
</g>
<!-- 6 -->
<g id="node7" class="node">
<title>6</title>
<polygon fill="none" stroke="#000000" points="6.0505,-251.7 6.0505,-301.3 60.0505,-301.3 60.0505,-251.7 6.0505,-251.7"/>
<text text-anchor="middle" x="32.9867" y="-284.7" font-family="Times,serif" font-size="14.00" fill="#000000">EXIT</text>
<polyline fill="none" stroke="#000000" points="6.0505,-276.5 59.9229,-276.5 "/>
<text text-anchor="middle" x="32.9867" y="-259.9" font-family="Times,serif" font-size="14.00" fill="#000000"> </text>
</g>
<!-- 5&#45;&gt;6 -->
<g id="edge7" class="edge">
<title>5-&gt;6</title>
<path fill="none" stroke="#000000" d="M39.1139,-354.8697C38.119,-342.0102 36.8895,-326.1191 35.7983,-312.0152"/>
<polygon fill="#000000" stroke="#000000" points="39.258,-311.3583 34.997,-301.6581 32.2789,-311.8984 39.258,-311.3583"/>
</g>
<!-- 3 -->
<g id="node5" class="node">
<title>3</title>
<polygon fill="none" stroke="#000000" points="77.7325,-243.3 77.7325,-309.7 240.3685,-309.7 240.3685,-243.3 77.7325,-243.3"/>
<text text-anchor="middle" x="159.0505" y="-293.1" font-family="Times,serif" font-size="14.00" fill="#000000">_LABEL_3</text>
<polyline fill="none" stroke="#000000" points="77.7325,-284.9 240.3685,-284.9 "/>
<text text-anchor="middle" x="159.0505" y="-268.3" font-family="Times,serif" font-size="14.00" fill="#000000">call rd10, @myfun, ( 9 2 )</text>
<text text-anchor="middle" x="159.0505" y="-251.5" font-family="Times,serif" font-size="14.00" fill="#000000">j @_LABEL_4</text>
</g>
<!-- 2&#45;&gt;3 -->
<g id="edge4" class="edge">
<title>2-&gt;3</title>
<path fill="none" stroke="#000000" d="M159.0505,-346.6144C159.0505,-338.1278 159.0505,-328.8797 159.0505,-319.9667"/>
<polygon fill="#000000" stroke="#000000" points="162.5506,-319.7232 159.0505,-309.7232 155.5506,-319.7232 162.5506,-319.7232"/>
</g>
<!-- 4 -->
<g id="node6" class="node">
<title>4</title>
<polygon fill="none" stroke="#000000" points="130.5873,-89.5 130.5873,-206.3 253.5137,-206.3 253.5137,-89.5 130.5873,-89.5"/>
<text text-anchor="middle" x="192.0505" y="-189.7" font-family="Times,serif" font-size="14.00" fill="#000000">_LABEL_4</text>
<polyline fill="none" stroke="#000000" points="130.5873,-181.5 253.5137,-181.5 "/>
<text text-anchor="middle" x="192.0505" y="-164.9" font-family="Times,serif" font-size="14.00" fill="#000000">mv rd2, rd10</text>
<text text-anchor="middle" x="192.0505" y="-148.1" font-family="Times,serif" font-size="14.00" fill="#000000">li rd11, #1</text>
<text text-anchor="middle" x="192.0505" y="-131.3" font-family="Times,serif" font-size="14.00" fill="#000000">sub rd12, rd3, rd11</text>
<text text-anchor="middle" x="192.0505" y="-114.5" font-family="Times,serif" font-size="14.00" fill="#000000">mv rd3, rd12</text>
<text text-anchor="middle" x="192.0505" y="-97.7" font-family="Times,serif" font-size="14.00" fill="#000000">j @_LABEL_0</text>
</g>
<!-- 3&#45;&gt;4 -->
<g id="edge5" class="edge">
<title>3-&gt;4</title>
<path fill="none" stroke="#000000" d="M167.6347,-243.0476C169.7749,-234.7072 172.148,-225.4593 174.5495,-216.1009"/>
<polygon fill="#000000" stroke="#000000" points="177.9583,-216.8979 177.0538,-206.3417 171.178,-215.1579 177.9583,-216.8979"/>
</g>
<!-- 4&#45;&gt;1 -->
<g id="edge6" class="edge">
<title>4-&gt;1</title>
<path fill="none" stroke="#000000" d="M233.756,-206.4109C240.0666,-217.9773 245.6104,-230.3912 249.0505,-242.8 257.0534,-271.6668 253.2659,-280.5425 249.0505,-310.2 242.3168,-357.5746 237.8735,-369.607 219.0505,-413.6 215.1651,-422.681 210.6487,-431.9583 205.8707,-441.0447"/>
<polygon fill="#000000" stroke="#000000" points="202.6794,-439.5891 201.0192,-450.053 208.8424,-442.9083 202.6794,-439.5891"/>
</g>
<!-- dom0 -->
<g id="node8" class="node">
<title>dom0</title>
<polygon fill="none" stroke="#000000" points="314.723,-661.1 314.723,-697.1 377.378,-697.1 377.378,-661.1 314.723,-661.1"/>
<text text-anchor="middle" x="346.0505" y="-674.9" font-family="Times,serif" font-size="14.00" fill="#000000">ENTRY</text>
</g>
<!-- dom1 -->
<g id="node9" class="node">
<title>dom1</title>
<polygon fill="none" stroke="#000000" points="305,-498.9 305,-534.9 387.101,-534.9 387.101,-498.9 305,-498.9"/>
<text text-anchor="middle" x="346.0505" y="-512.7" font-family="Times,serif" font-size="14.00" fill="#000000">_LABEL_0</text>
</g>
<!-- dom0&#45;&gt;dom1 -->
<g id="edge8" class="edge">
<title>dom0-&gt;dom1</title>
<path fill="none" stroke="#000000" d="M346.0505,-660.8089C346.0505,-632.6993 346.0505,-578.6511 346.0505,-545.3845"/>
<polygon fill="#000000" stroke="#000000" points="349.5506,-545.3731 346.0505,-535.3731 342.5506,-545.3732 349.5506,-545.3731"/>
</g>
<!-- dom2 -->
<g id="node10" class="node">
<title>dom2</title>
<polygon fill="none" stroke="#000000" points="304,-361.9 304,-397.9 386.101,-397.9 386.101,-361.9 304,-361.9"/>
<text text-anchor="middle" x="345.0505" y="-375.7" font-family="Times,serif" font-size="14.00" fill="#000000">_LABEL_2</text>
</g>
<!-- dom1&#45;&gt;dom2 -->
<g id="edge9" class="edge">
<title>dom1-&gt;dom2</title>
<path fill="none" stroke="#000000" d="M345.9177,-498.7075C345.7489,-475.575 345.4555,-435.3836 345.2572,-408.2242"/>
<polygon fill="#000000" stroke="#000000" points="348.7568,-408.1419 345.1838,-398.1678 341.757,-408.1931 348.7568,-408.1419"/>
</g>
<!-- dom5 -->
<g id="node13" class="node">
<title>dom5</title>
<polygon fill="none" stroke="#000000" points="404,-361.9 404,-397.9 486.101,-397.9 486.101,-361.9 404,-361.9"/>
<text text-anchor="middle" x="445.0505" y="-375.7" font-family="Times,serif" font-size="14.00" fill="#000000">_LABEL_1</text>
</g>
<!-- dom1&#45;&gt;dom5 -->
<g id="edge12" class="edge">
<title>dom1-&gt;dom5</title>
<path fill="none" stroke="#000000" d="M359.1969,-498.7075C376.2829,-475.0632 406.2476,-433.5969 425.8712,-406.441"/>
<polygon fill="#000000" stroke="#000000" points="428.8294,-408.323 431.8497,-398.1678 423.1557,-404.223 428.8294,-408.323"/>
</g>
<!-- dom3 -->
<g id="node11" class="node">
<title>dom3</title>
<polygon fill="none" stroke="#000000" points="304,-258.5 304,-294.5 386.101,-294.5 386.101,-258.5 304,-258.5"/>
<text text-anchor="middle" x="345.0505" y="-272.3" font-family="Times,serif" font-size="14.00" fill="#000000">_LABEL_3</text>
</g>
<!-- dom2&#45;&gt;dom3 -->
<g id="edge10" class="edge">
<title>dom2-&gt;dom3</title>
<path fill="none" stroke="#000000" d="M345.0505,-361.8891C345.0505,-346.1211 345.0505,-322.9478 345.0505,-304.7193"/>
<polygon fill="#000000" stroke="#000000" points="348.5506,-304.6514 345.0505,-294.6514 341.5506,-304.6515 348.5506,-304.6514"/>
</g>
<!-- dom4 -->
<g id="node12" class="node">
<title>dom4</title>
<polygon fill="none" stroke="#000000" points="304,-129.9 304,-165.9 386.101,-165.9 386.101,-129.9 304,-129.9"/>
<text text-anchor="middle" x="345.0505" y="-143.7" font-family="Times,serif" font-size="14.00" fill="#000000">_LABEL_4</text>
</g>
<!-- dom3&#45;&gt;dom4 -->
<g id="edge11" class="edge">
<title>dom3-&gt;dom4</title>
<path fill="none" stroke="#000000" d="M345.0505,-258.3475C345.0505,-236.9975 345.0505,-201.301 345.0505,-176.2838"/>
<polygon fill="#000000" stroke="#000000" points="348.5506,-175.9601 345.0505,-165.9601 341.5506,-175.9602 348.5506,-175.9601"/>
</g>
<!-- dom6 -->
<g id="node14" class="node">
<title>dom6</title>
<polygon fill="none" stroke="#000000" points="418.0505,-258.5 418.0505,-294.5 472.0505,-294.5 472.0505,-258.5 418.0505,-258.5"/>
<text text-anchor="middle" x="444.9867" y="-272.3" font-family="Times,serif" font-size="14.00" fill="#000000">EXIT</text>
</g>
<!-- dom5&#45;&gt;dom6 -->
<g id="edge13" class="edge">
<title>dom5-&gt;dom6</title>
<path fill="none" stroke="#000000" d="M445.0505,-361.8891C445.0505,-346.1211 445.0505,-322.9478 445.0505,-304.7193"/>
<polygon fill="#000000" stroke="#000000" points="448.5506,-304.6514 445.0505,-294.6514 441.5506,-304.6515 448.5506,-304.6514"/>
</g>
<!-- pdom1 -->
<g id="node15" class="node">
<title>pdom1</title>
<polygon fill="none" stroke="#000000" points="550,-361.9 550,-397.9 632.101,-397.9 632.101,-361.9 550,-361.9"/>
<text text-anchor="middle" x="591.0505" y="-375.7" font-family="Times,serif" font-size="14.00" fill="#000000">_LABEL_0</text>
</g>
<!-- pdom0 -->
<g id="node16" class="node">
<title>pdom0</title>
<polygon fill="none" stroke="#000000" points="509.723,-258.5 509.723,-294.5 572.378,-294.5 572.378,-258.5 509.723,-258.5"/>
<text text-anchor="middle" x="541.0505" y="-272.3" font-family="Times,serif" font-size="14.00" fill="#000000">ENTRY</text>
</g>
<!-- pdom1&#45;&gt;pdom0 -->
<g id="edge14" class="edge">
<title>pdom1-&gt;pdom0</title>
<path fill="none" stroke="#000000" d="M582.3412,-361.8891C574.5739,-345.8264 563.0906,-322.0789 554.2045,-303.7024"/>
<polygon fill="#000000" stroke="#000000" points="557.3321,-302.1305 549.8278,-294.6514 551.0302,-305.1778 557.3321,-302.1305"/>
</g>
<!-- pdom4 -->
<g id="node20" class="node">
<title>pdom4</title>
<polygon fill="none" stroke="#000000" points="590,-258.5 590,-294.5 672.101,-294.5 672.101,-258.5 590,-258.5"/>
<text text-anchor="middle" x="631.0505" y="-272.3" font-family="Times,serif" font-size="14.00" fill="#000000">_LABEL_4</text>
</g>
<!-- pdom1&#45;&gt;pdom4 -->
<g id="edge18" class="edge">
<title>pdom1-&gt;pdom4</title>
<path fill="none" stroke="#000000" d="M598.018,-361.8891C604.1748,-345.9737 613.2501,-322.514 620.3311,-304.2096"/>
<polygon fill="#000000" stroke="#000000" points="623.685,-305.2407 624.0287,-294.6514 617.1564,-302.7151 623.685,-305.2407"/>
</g>
<!-- pdom5 -->
<g id="node17" class="node">
<title>pdom5</title>
<polygon fill="none" stroke="#000000" points="550,-498.9 550,-534.9 632.101,-534.9 632.101,-498.9 550,-498.9"/>
<text text-anchor="middle" x="591.0505" y="-512.7" font-family="Times,serif" font-size="14.00" fill="#000000">_LABEL_1</text>
</g>
<!-- pdom5&#45;&gt;pdom1 -->
<g id="edge15" class="edge">
<title>pdom5-&gt;pdom1</title>
<path fill="none" stroke="#000000" d="M591.0505,-498.7075C591.0505,-475.575 591.0505,-435.3836 591.0505,-408.2242"/>
<polygon fill="#000000" stroke="#000000" points="594.5506,-408.1677 591.0505,-398.1678 587.5506,-408.1678 594.5506,-408.1677"/>
</g>
<!-- pdom3 -->
<g id="node18" class="node">
<title>pdom3</title>
<polygon fill="none" stroke="#000000" points="590,-129.9 590,-165.9 672.101,-165.9 672.101,-129.9 590,-129.9"/>
<text text-anchor="middle" x="631.0505" y="-143.7" font-family="Times,serif" font-size="14.00" fill="#000000">_LABEL_3</text>
</g>
<!-- pdom2 -->
<g id="node19" class="node">
<title>pdom2</title>
<polygon fill="none" stroke="#000000" points="590,-16.5 590,-52.5 672.101,-52.5 672.101,-16.5 590,-16.5"/>
<text text-anchor="middle" x="631.0505" y="-30.3" font-family="Times,serif" font-size="14.00" fill="#000000">_LABEL_2</text>
</g>
<!-- pdom3&#45;&gt;pdom2 -->
<g id="edge16" class="edge">
<title>pdom3-&gt;pdom2</title>
<path fill="none" stroke="#000000" d="M631.0505,-129.6803C631.0505,-111.6598 631.0505,-83.8206 631.0505,-62.8971"/>
<polygon fill="#000000" stroke="#000000" points="634.5506,-62.6744 631.0505,-52.6745 627.5506,-62.6745 634.5506,-62.6744"/>
</g>
<!-- pdom4&#45;&gt;pdom3 -->
<g id="edge17" class="edge">
<title>pdom4-&gt;pdom3</title>
<path fill="none" stroke="#000000" d="M631.0505,-258.3475C631.0505,-236.9975 631.0505,-201.301 631.0505,-176.2838"/>
<polygon fill="#000000" stroke="#000000" points="634.5506,-175.9601 631.0505,-165.9601 627.5506,-175.9602 634.5506,-175.9601"/>
</g>
<!-- pdom6 -->
<g id="node21" class="node">
<title>pdom6</title>
<polygon fill="none" stroke="#000000" points="564.0505,-661.1 564.0505,-697.1 618.0505,-697.1 618.0505,-661.1 564.0505,-661.1"/>
<text text-anchor="middle" x="590.9867" y="-674.9" font-family="Times,serif" font-size="14.00" fill="#000000">EXIT</text>
</g>
<!-- pdom6&#45;&gt;pdom5 -->
<g id="edge19" class="edge">
<title>pdom6-&gt;pdom5</title>
<path fill="none" stroke="#000000" d="M591.0505,-660.8089C591.0505,-632.6993 591.0505,-578.6511 591.0505,-545.3845"/>
<polygon fill="#000000" stroke="#000000" points="594.5506,-545.3731 591.0505,-535.3731 587.5506,-545.3732 594.5506,-545.3731"/>
</g>
</g>
</svg>