<?xml version="1.0" encoding="UTF-8" standalone="no"?>
<!DOCTYPE svg PUBLIC "-//W3C//DTD SVG 1.1//EN" "http://www.w3.org/Graphics/SVG/1.1/DTD/svg11.dtd">
<!-- Generated by graphviz version 2.40.1 (20161225.0304)
 -->
<!-- Title: G Pages: 1 -->
<svg width="706pt" height="746pt" viewBox="0.00 0.00 706.05 746.00" xmlns="http://www.w3.org/2000/svg" xmlns:xlink="http://www.w3.org/1999/xlink">
<g id="graph0" class="graph" transform="scale(1 1) rotate(0) translate(4 742)">
<title>G</title>
<polygon fill="#ffffff" stroke="transparent" points="-4,4 -4,-742 702.0505,-742 702.0505,4 -4,4"/>
<g id="clust1" class="cluster">
<title>cluster_dominance</title>
<polygon fill="none" stroke="#000000" points="306.0505,-96.2 306.0505,-722 504.0505,-722 504.0505,-96.2 306.0505,-96.2"/>
<text text-anchor="middle" x="405.0505" y="-705.4" font-family="Times,serif" font-size="14.00" fill="#000000">dom tree</text>
</g>
<g id="clust2" class="cluster">
<title>cluster_postdominance</title>
<polygon fill="none" stroke="#000000" points="512.0505,-8 512.0505,-722 690.0505,-722 690.0505,-8 512.0505,-8"/>
<text text-anchor="middle" x="601.0505" y="-705.4" font-family="Times,serif" font-size="14.00" fill="#000000">postdom tree</text>
</g>
<!-- 0 -->
<g id="node1" class="node">
<title>0</title>
<polygon fill="none" stroke="#000000" points="106.0361,-603.9 106.0361,-737.5 218.0649,-737.5 218.0649,-603.9 106.0361,-603.9"/>
<text text-anchor="middle" x="162.0505" y="-720.9" font-family="Times,serif" font-size="14.00" fill="#000000">ENTRY</text>
<polyline fill="none" stroke="#000000" points="106.0361,-712.7 218.0649,-712.7 "/>
<text text-anchor="middle" x="162.0505" y="-696.1" font-family="Times,serif" font-size="14.00" fill="#000000">getParam rd14, 0</text>
<text text-anchor="middle" x="162.0505" y="-679.3" font-family="Times,serif" font-size="14.00" fill="#000000">getParam rd15, 1</text>
<text text-anchor="middle" x="162.0505" y="-662.5" font-family="Times,serif" font-size="14.00" fill="#000000">li rd16, #0</text>
<text text-anchor="middle" x="162.0505" y="-645.7" font-family="Times,serif" font-size="14.00" fill="#000000">li rd17, #100</text>
<text text-anchor="middle" x="162.0505" y="-628.9" font-family="Times,serif" font-size="14.00" fill="#000000">li rd33, #1</text>
<text text-anchor="middle" x="162.0505" y="-612.1" font-family="Times,serif" font-size="14.00" fill="#000000">j @_LABEL_0</text>
</g>
<!-- 1 -->
<g id="node2" class="node">
<title>1</title>
<polygon fill="none" stroke="#000000" points="27.039,-399.7 27.039,-566.9 297.062,-566.9 297.062,-399.7 27.039,-399.7"/>
<text text-anchor="middle" x="162.0505" y="-550.3" font-family="Times,serif" font-size="14.00" fill="#000000">_LABEL_0</text>
<polyline fill="none" stroke="#000000" points="27.039,-542.1 297.062,-542.1 "/>
<text text-anchor="middle" x="162.0505" y="-525.5" font-family="Times,serif" font-size="14.00" fill="#000000">rd34 &lt;- ϕ ( 16 16 )</text>
<text text-anchor="middle" x="162.0505" y="-508.7" font-family="Times,serif" font-size="14.00" fill="#000000">rd18 &lt;- ϕ ( 16 28 )</text>
<text text-anchor="middle" x="162.0505" y="-491.9" font-family="Times,serif" font-size="14.00" fill="#000000">rd19 &lt;- ϕ ( 17 31 )</text>
<text text-anchor="middle" x="162.0505" y="-475.1" font-family="Times,serif" font-size="14.00" fill="#000000">rd20 &lt;- ϕ ( ⊥ 28 )</text>
<text text-anchor="middle" x="162.0505" y="-458.3" font-family="Times,serif" font-size="14.00" fill="#000000">rd21 &lt;- ϕ ( ⊥ 27 )</text>
<text text-anchor="middle" x="162.0505" y="-441.5" font-family="Times,serif" font-size="14.00" fill="#000000">slt rd23, rd19, rd16</text>
<text text-anchor="middle" x="162.0505" y="-424.7" font-family="Times,serif" font-size="14.00" fill="#000000">xor rd25, rd33, rd23</text>
<text text-anchor="middle" x="162.0505" y="-407.9" font-family="Times,serif" font-size="14.00" fill="#000000">beq rd25, rd16, @_LABEL_1, @_LABEL_2</text>
</g>
<!-- 0&#45;&gt;1 -->
<g id="edge1" class="edge">
<title>0-&gt;1</title>
<path fill="none" stroke="#000000" d="M162.0505,-603.838C162.0505,-595.2079 162.0505,-586.2461 162.0505,-577.2809"/>
<polygon fill="#000000" stroke="#000000" points="165.5506,-577.1749 162.0505,-567.1749 158.5506,-577.175 165.5506,-577.1749"/>
</g>
<!-- 5 -->
<g id="node3" class="node">
<title>5</title>
<polygon fill="none" stroke="#000000" points="0,-304.7 0,-354.3 82.101,-354.3 82.101,-304.7 0,-304.7"/>
<text text-anchor="middle" x="41.0505" y="-337.7" font-family="Times,serif" font-size="14.00" fill="#000000">_LABEL_1</text>
<polyline fill="none" stroke="#000000" points="0,-329.5 82.101,-329.5 "/>
<text text-anchor="middle" x="41.0505" y="-312.9" font-family="Times,serif" font-size="14.00" fill="#000000">return rd18</text>
</g>
<!-- 1&#45;&gt;5 -->
<g id="edge2" class="edge">
<title>1-&gt;5</title>
<path fill="none" stroke="#000000" d="M96.2392,-399.6489C85.9034,-386.5113 75.7759,-373.6386 67.076,-362.5803"/>
<polygon fill="#000000" stroke="#000000" points="69.6555,-360.1985 60.7215,-354.5033 64.154,-364.5268 69.6555,-360.1985"/>
</g>
<!-- 2 -->
<g id="node4" class="node">
<title>2</title>
<polygon fill="none" stroke="#000000" points="110.8584,-296.3 110.8584,-362.7 213.2426,-362.7 213.2426,-296.3 110.8584,-296.3"/>
<text text-anchor="middle" x="162.0505" y="-346.1" font-family="Times,serif" font-size="14.00" fill="#000000">_LABEL_2</text>
<polyline fill="none" stroke="#000000" points="110.8584,-337.9 213.2426,-337.9 "/>
<text text-anchor="middle" x="162.0505" y="-321.3" font-family="Times,serif" font-size="14.00" fill="#000000">li rd27, #3</text>
<text text-anchor="middle" x="162.0505" y="-304.5" font-family="Times,serif" font-size="14.00" fill="#000000">j @_LABEL_3</text>
</g>
<!-- 1&#45;&gt;2 -->
<g id="edge3" class="edge">
<title>1-&gt;2</title>
<path fill="none" stroke="#000000" d="M162.0505,-399.6489C162.0505,-390.5339 162.0505,-381.5463 162.0505,-373.2037"/>
<polygon fill="#000000" stroke="#000000" points="165.5506,-373.0204 162.0505,-363.0205 158.5506,-373.0205 165.5506,-373.0204"/>
</g>
<!-- 6 -->
<g id="node7" class="node">
<title>6</title>
<polygon fill="none" stroke="#000000" points="2.0505,-201.3 2.0505,-250.9 56.0505,-250.9 56.0505,-201.3 2.0505,-201.3"/>
<text text-anchor="middle" x="28.9867" y="-234.3" font-family="Times,serif" font-size="14.00" fill="#000000">EXIT</text>
<polyline fill="none" stroke="#000000" points="2.0505,-226.1 55.9229,-226.1 "/>
<text text-anchor="middle" x="28.9867" y="-209.5" font-family="Times,serif" font-size="14.00" fill="#000000"> </text>
</g>
<!-- 5&#45;&gt;6 -->
<g id="edge7" class="edge">
<title>5-&gt;6</title>
<path fill="none" stroke="#000000" d="M38.1456,-304.4697C36.6386,-291.4841 34.7728,-275.4072 33.1241,-261.2009"/>
<polygon fill="#000000" stroke="#000000" points="36.5998,-260.788 31.9702,-251.2581 29.6464,-261.595 36.5998,-260.788"/>
</g>
<!-- 3 -->
<g id="node5" class="node">
<title>3</title>
<polygon fill="none" stroke="#000000" points="73.7325,-192.9 73.7325,-259.3 250.3685,-259.3 250.3685,-192.9 73.7325,-192.9"/>
<text text-anchor="middle" x="162.0505" y="-242.7" font-family="Times,serif" font-size="14.00" fill="#000000">_LABEL_3</text>
<polyline fill="none" stroke="#000000" points="73.7325,-234.5 250.3685,-234.5 "/>
<text text-anchor="middle" x="162.0505" y="-217.9" font-family="Times,serif" font-size="14.00" fill="#000000">call rd28, @myfun, ( 27 18 )</text>
<text text-anchor="middle" x="162.0505" y="-201.1" font-family="Times,serif" font-size="14.00" fill="#000000">j @_LABEL_4</text>
</g>
<!-- 2&#45;&gt;3 -->
<g id="edge4" class="edge">
<title>2-&gt;3</title>
<path fill="none" stroke="#000000" d="M162.0505,-296.2144C162.0505,-287.7278 162.0505,-278.4797 162.0505,-269.5667"/>
<polygon fill="#000000" stroke="#000000" points="165.5506,-269.3232 162.0505,-259.3232 158.5506,-269.3232 165.5506,-269.3232"/>
</g>
<!-- 4 -->
<g id="node6" class="node">
<title>4</title>
<polygon fill="none" stroke="#000000" points="132.0873,-89.5 132.0873,-155.9 262.0137,-155.9 262.0137,-89.5 132.0873,-89.5"/>
<text text-anchor="middle" x="197.0505" y="-139.3" font-family="Times,serif" font-size="14.00" fill="#000000">_LABEL_4</text>
<polyline fill="none" stroke="#000000" points="132.0873,-131.1 262.0137,-131.1 "/>
<text text-anchor="middle" x="197.0505" y="-114.5" font-family="Times,serif" font-size="14.00" fill="#000000">sub rd31, rd19, rd33</text>
<text text-anchor="middle" x="197.0505" y="-97.7" font-family="Times,serif" font-size="14.00" fill="#000000">j @_LABEL_0</text>
</g>
<!-- 3&#45;&gt;4 -->
<g id="edge5" class="edge">
<title>3-&gt;4</title>
<path fill="none" stroke="#000000" d="M173.3174,-192.8144C176.2525,-184.1433 179.4566,-174.6773 182.534,-165.5859"/>
<polygon fill="#000000" stroke="#000000" points="185.9137,-166.5175 185.8047,-155.9232 179.2832,-164.2731 185.9137,-166.5175"/>
</g>
<!-- 4&#45;&gt;1 -->
<g id="edge6" class="edge">
<title>4-&gt;1</title>
<path fill="none" stroke="#000000" d="M235.5619,-156.144C245.0736,-166.6806 253.9833,-179.0794 259.0505,-192.4 269.7011,-220.3982 264.1721,-230.2855 259.0505,-259.8 251.2673,-304.6526 232.8848,-351.2936 214.1906,-390.2922"/>
<polygon fill="#000000" stroke="#000000" points="210.9284,-388.9967 209.6938,-399.5194 217.221,-392.0634 210.9284,-388.9967"/>
</g>
<!-- dom0 -->
<g id="node8" class="node">
<title>dom0</title>
<polygon fill="none" stroke="#000000" points="324.723,-652.7 324.723,-688.7 387.378,-688.7 387.378,-652.7 324.723,-652.7"/>
<text text-anchor="middle" x="356.0505" y="-666.5" font-family="Times,serif" font-size="14.00" fill="#000000">ENTRY</text>
</g>
<!-- dom1 -->
<g id="node9" class="node">
<title>dom1</title>
<polygon fill="none" stroke="#000000" points="315,-465.3 315,-501.3 397.101,-501.3 397.101,-465.3 315,-465.3"/>
<text text-anchor="middle" x="356.0505" y="-479.1" font-family="Times,serif" font-size="14.00" fill="#000000">_LABEL_0</text>
</g>
<!-- dom0&#45;&gt;dom1 -->
<g id="edge8" class="edge">
<title>dom0-&gt;dom1</title>
<path fill="none" stroke="#000000" d="M356.0505,-652.3901C356.0505,-619.5582 356.0505,-550.4745 356.0505,-511.5363"/>
<polygon fill="#000000" stroke="#000000" points="359.5506,-511.4083 356.0505,-501.4083 352.5506,-511.4084 359.5506,-511.4083"/>
</g>
<!-- dom2 -->
<g id="node10" class="node">
<title>dom2</title>
<polygon fill="none" stroke="#000000" points="314,-311.5 314,-347.5 396.101,-347.5 396.101,-311.5 314,-311.5"/>
<text text-anchor="middle" x="355.0505" y="-325.3" font-family="Times,serif" font-size="14.00" fill="#000000">_LABEL_2</text>
</g>
<!-- dom1&#45;&gt;dom2 -->
<g id="edge9" class="edge">
<title>dom1-&gt;dom2</title>
<path fill="none" stroke="#000000" d="M355.9319,-465.0532C355.7597,-438.5749 355.439,-389.2554 355.2356,-357.97"/>
<polygon fill="#000000" stroke="#000000" points="358.734,-357.7001 355.169,-347.7231 351.7342,-357.7457 358.734,-357.7001"/>
</g>
<!-- dom5 -->
<g id="node13" class="node">
<title>dom5</title>
<polygon fill="none" stroke="#000000" points="414,-311.5 414,-347.5 496.101,-347.5 496.101,-311.5 414,-311.5"/>
<text text-anchor="middle" x="455.0505" y="-325.3" font-family="Times,serif" font-size="14.00" fill="#000000">_LABEL_1</text>
</g>
<!-- dom1&#45;&gt;dom5 -->
<g id="edge12" class="edge">
<title>dom1-&gt;dom5</title>
<path fill="none" stroke="#000000" d="M367.7959,-465.0532C385.1375,-438.1124 417.6999,-387.5255 437.7691,-356.3473"/>
<polygon fill="#000000" stroke="#000000" points="440.8508,-358.0261 443.3204,-347.7231 434.9648,-354.2373 440.8508,-358.0261"/>
</g>
<!-- dom3 -->
<g id="node11" class="node">
<title>dom3</title>
<polygon fill="none" stroke="#000000" points="314,-208.1 314,-244.1 396.101,-244.1 396.101,-208.1 314,-208.1"/>
<text text-anchor="middle" x="355.0505" y="-221.9" font-family="Times,serif" font-size="14.00" fill="#000000">_LABEL_3</text>
</g>
<!-- dom2&#45;&gt;dom3 -->
<g id="edge10" class="edge">
<title>dom2-&gt;dom3</title>
<path fill="none" stroke="#000000" d="M355.0505,-311.4891C355.0505,-295.7211 355.0505,-272.5478 355.0505,-254.3193"/>
<polygon fill="#000000" stroke="#000000" points="358.5506,-254.2514 355.0505,-244.2514 351.5506,-254.2515 358.5506,-254.2514"/>
</g>
<!-- dom4 -->
<g id="node12" class="node">
<title>dom4</title>
<polygon fill="none" stroke="#000000" points="314,-104.7 314,-140.7 396.101,-140.7 396.101,-104.7 314,-104.7"/>
<text text-anchor="middle" x="355.0505" y="-118.5" font-family="Times,serif" font-size="14.00" fill="#000000">_LABEL_4</text>
</g>
<!-- dom3&#45;&gt;dom4 -->
<g id="edge11" class="edge">
<title>dom3-&gt;dom4</title>
<path fill="none" stroke="#000000" d="M355.0505,-208.0891C355.0505,-192.3211 355.0505,-169.1478 355.0505,-150.9193"/>
<polygon fill="#000000" stroke="#000000" points="358.5506,-150.8514 355.0505,-140.8514 351.5506,-150.8515 358.5506,-150.8514"/>
</g>
<!-- dom6 -->
<g id="node14" class="node">
<title>dom6</title>
<polygon fill="none" stroke="#000000" points="428.0505,-208.1 428.0505,-244.1 482.0505,-244.1 482.0505,-208.1 428.0505,-208.1"/>
<text text-anchor="middle" x="454.9867" y="-221.9" font-family="Times,serif" font-size="14.00" fill="#000000">EXIT</text>
</g>
<!-- dom5&#45;&gt;dom6 -->
<g id="edge13" class="edge">
<title>dom5-&gt;dom6</title>
<path fill="none" stroke="#000000" d="M455.0505,-311.4891C455.0505,-295.7211 455.0505,-272.5478 455.0505,-254.3193"/>
<polygon fill="#000000" stroke="#000000" points="458.5506,-254.2514 455.0505,-244.2514 451.5506,-254.2515 458.5506,-254.2514"/>
</g>
<!-- pdom1 -->
<g id="node15" class="node">
<title>pdom1</title>
<polygon fill="none" stroke="#000000" points="560,-311.5 560,-347.5 642.101,-347.5 642.101,-311.5 560,-311.5"/>
<text text-anchor="middle" x="601.0505" y="-325.3" font-family="Times,serif" font-size="14.00" fill="#000000">_LABEL_0</text>
</g>
<!-- pdom0 -->
<g id="node16" class="node">
<title>pdom0</title>
<polygon fill="none" stroke="#000000" points="519.723,-208.1 519.723,-244.1 582.378,-244.1 582.378,-208.1 519.723,-208.1"/>
<text text-anchor="middle" x="551.0505" y="-221.9" font-family="Times,serif" font-size="14.00" fill="#000000">ENTRY</text>
</g>
<!-- pdom1&#45;&gt;pdom0 -->
<g id="edge14" class="edge">
<title>pdom1-&gt;pdom0</title>
<path fill="none" stroke="#000000" d="M592.3412,-311.4891C584.5739,-295.4264 573.0906,-271.6789 564.2045,-253.3024"/>
<polygon fill="#000000" stroke="#000000" points="567.3321,-251.7305 559.8278,-244.2514 561.0302,-254.7778 567.3321,-251.7305"/>
</g>
<!-- pdom4 -->
<g id="node20" class="node">
<title>pdom4</title>
<polygon fill="none" stroke="#000000" points="600,-208.1 600,-244.1 682.101,-244.1 682.101,-208.1 600,-208.1"/>
<text text-anchor="middle" x="641.0505" y="-221.9" font-family="Times,serif" font-size="14.00" fill="#000000">_LABEL_4</text>
</g>
<!-- pdom1&#45;&gt;pdom4 -->
<g id="edge18" class="edge">
<title>pdom1-&gt;pdom4</title>
<path fill="none" stroke="#000000" d="M608.018,-311.4891C614.1748,-295.5737 623.2501,-272.114 630.3311,-253.8096"/>
<polygon fill="#000000" stroke="#000000" points="633.685,-254.8407 634.0287,-244.2514 627.1564,-252.3151 633.685,-254.8407"/>
</g>
<!-- pdom5 -->
<g id="node17" class="node">
<title>pdom5</title>
<polygon fill="none" stroke="#000000" points="560,-465.3 560,-501.3 642.101,-501.3 642.101,-465.3 560,-465.3"/>
<text text-anchor="middle" x="601.0505" y="-479.1" font-family="Times,serif" font-size="14.00" fill="#000000">_LABEL_1</text>
</g>
<!-- pdom5&#45;&gt;pdom1 -->
<g id="edge15" class="edge">
<title>pdom5-&gt;pdom1</title>
<path fill="none" stroke="#000000" d="M601.0505,-465.0532C601.0505,-438.5749 601.0505,-389.2554 601.0505,-357.97"/>
<polygon fill="#000000" stroke="#000000" points="604.5506,-357.7231 601.0505,-347.7231 597.5506,-357.7231 604.5506,-357.7231"/>
</g>
<!-- pdom3 -->
<g id="node18" class="node">
<title>pdom3</title>
<polygon fill="none" stroke="#000000" points="600,-104.7 600,-140.7 682.101,-140.7 682.101,-104.7 600,-104.7"/>
<text text-anchor="middle" x="641.0505" y="-118.5" font-family="Times,serif" font-size="14.00" fill="#000000">_LABEL_3</text>
</g>
<!-- pdom2 -->
<g id="node19" class="node">
<title>pdom2</title>
<polygon fill="none" stroke="#000000" points="600,-16.5 600,-52.5 682.101,-52.5 682.101,-16.5 600,-16.5"/>
<text text-anchor="middle" x="641.0505" y="-30.3" font-family="Times,serif" font-size="14.00" fill="#000000">_LABEL_2</text>
</g>
<!-- pdom3&#45;&gt;pdom2 -->
<g id="edge16" class="edge">
<title>pdom3-&gt;pdom2</title>
<path fill="none" stroke="#000000" d="M641.0505,-104.4249C641.0505,-92.4806 641.0505,-76.6339 641.0505,-63.0465"/>
<polygon fill="#000000" stroke="#000000" points="644.5506,-62.7517 641.0505,-52.7517 637.5506,-62.7517 644.5506,-62.7517"/>
</g>
<!-- pdom4&#45;&gt;pdom3 -->
<g id="edge17" class="edge">
<title>pdom4-&gt;pdom3</title>
<path fill="none" stroke="#000000" d="M641.0505,-208.0891C641.0505,-192.3211 641.0505,-169.1478 641.0505,-150.9193"/>
<polygon fill="#000000" stroke="#000000" points="644.5506,-150.8514 641.0505,-140.8514 637.5506,-150.8515 644.5506,-150.8514"/>
</g>
<!-- pdom6 -->
<g id="node21" class="node">
<title>pdom6</title>
<polygon fill="none" stroke="#000000" points="574.0505,-652.7 574.0505,-688.7 628.0505,-688.7 628.0505,-652.7 574.0505,-652.7"/>
<text text-anchor="middle" x="600.9867" y="-666.5" font-family="Times,serif" font-size="14.00" fill="#000000">EXIT</text>
</g>
<!-- pdom6&#45;&gt;pdom5 -->
<g id="edge19" class="edge">
<title>pdom6-&gt;pdom5</title>
<path fill="none" stroke="#000000" d="M601.0505,-652.3901C601.0505,-619.5582 601.0505,-550.4745 601.0505,-511.5363"/>
<polygon fill="#000000" stroke="#000000" points="604.5506,-511.4083 601.0505,-501.4083 597.5506,-511.4084 604.5506,-511.4083"/>
</g>
</g>
</svg>