<?xml version="1.0" encoding="UTF-8" standalone="no"?>
<!DOCTYPE svg PUBLIC "-//W3C//DTD SVG 1.1//EN" "http://www.w3.org/Graphics/SVG/1.1/DTD/svg11.dtd">
<!-- Generated by graphviz version 2.40.1 (20161225.0304)
 -->
<!-- Title: G Pages: 1 -->
<svg width="706pt" height="814pt" viewBox="0.00 0.00 706.05 813.60" xmlns="http://www.w3.org/2000/svg" xmlns:xlink="http://www.w3.org/1999/xlink">
<g id="graph0" class="graph" transform="scale(1 1) rotate(0) translate(4 809.6)">
<title>G</title>
<polygon fill="#ffffff" stroke="transparent" points="-4,4 -4,-809.6 702.0505,-809.6 702.0505,4 -4,4"/>
<g id="clust1" class="cluster">
<title>cluster_dominance</title>
<polygon fill="none" stroke="#000000" points="306.0505,-121.4 306.0505,-797.6 504.0505,-797.6 504.0505,-121.4 306.0505,-121.4"/>
<text text-anchor="middle" x="405.0505" y="-781" font-family="Times,serif" font-size="14.00" fill="#000000">dom tree</text>
</g>
<g id="clust2" class="cluster">
<title>cluster_postdominance</title>
<polygon fill="none" stroke="#000000" points="512.0505,-8 512.0505,-797.6 690.0505,-797.6 690.0505,-8 512.0505,-8"/>
<text text-anchor="middle" x="601.0505" y="-781" font-family="Times,serif" font-size="14.00" fill="#000000">postdom tree</text>
</g>
<!-- 0 -->
<g id="node1" class="node">
<title>0</title>
<polygon fill="none" stroke="#000000" points="106.0361,-687.9 106.0361,-804.7 218.0649,-804.7 218.0649,-687.9 106.0361,-687.9"/>
<text text-anchor="middle" x="162.0505" y="-788.1" font-family="Times,serif" font-size="14.00" fill="#000000">ENTRY</text>
<polyline fill="none" stroke="#000000" points="106.0361,-779.9 218.0649,-779.9 "/>
<text text-anchor="middle" x="162.0505" y="-763.3" font-family="Times,serif" font-size="14.00" fill="#000000">getParam rd14, 0</text>
<text text-anchor="middle" x="162.0505" y="-746.5" font-family="Times,serif" font-size="14.00" fill="#000000">getParam rd15, 1</text>
<text text-anchor="middle" x="162.0505" y="-729.7" font-family="Times,serif" font-size="14.00" fill="#000000">li rd16, #0</text>
<text text-anchor="middle" x="162.0505" y="-712.9" font-family="Times,serif" font-size="14.00" fill="#000000">li rd17, #100</text>
<text text-anchor="middle" x="162.0505" y="-696.1" font-family="Times,serif" font-size="14.00" fill="#000000">j @_LABEL_0</text>
</g>
<!-- 1 -->
<g id="node2" class="node">
<title>1</title>
<polygon fill="none" stroke="#000000" points="27.039,-450.1 27.039,-650.9 297.062,-650.9 297.062,-450.1 27.039,-450.1"/>
<text text-anchor="middle" x="162.0505" y="-634.3" font-family="Times,serif" font-size="14.00" fill="#000000">_LABEL_0</text>
<polyline fill="none" stroke="#000000" points="27.039,-626.1 297.062,-626.1 "/>
<text text-anchor="middle" x="162.0505" y="-609.5" font-family="Times,serif" font-size="14.00" fill="#000000">rd18 &lt;- ϕ ( 16 29 )</text>
<text text-anchor="middle" x="162.0505" y="-592.7" font-family="Times,serif" font-size="14.00" fill="#000000">rd19 &lt;- ϕ ( 17 32 )</text>
<text text-anchor="middle" x="162.0505" y="-575.9" font-family="Times,serif" font-size="14.00" fill="#000000">rd20 &lt;- ϕ ( ⊥ 28 )</text>
<text text-anchor="middle" x="162.0505" y="-559.1" font-family="Times,serif" font-size="14.00" fill="#000000">rd21 &lt;- ϕ ( ⊥ 27 )</text>
<text text-anchor="middle" x="162.0505" y="-542.3" font-family="Times,serif" font-size="14.00" fill="#000000">li rd22, #0</text>
<text text-anchor="middle" x="162.0505" y="-525.5" font-family="Times,serif" font-size="14.00" fill="#000000">slt rd23, rd19, rd22</text>
<text text-anchor="middle" x="162.0505" y="-508.7" font-family="Times,serif" font-size="14.00" fill="#000000">li rd24, #1</text>
<text text-anchor="middle" x="162.0505" y="-491.9" font-family="Times,serif" font-size="14.00" fill="#000000">xor rd25, rd24, rd23</text>
<text text-anchor="middle" x="162.0505" y="-475.1" font-family="Times,serif" font-size="14.00" fill="#000000">li rd26, #0</text>
<text text-anchor="middle" x="162.0505" y="-458.3" font-family="Times,serif" font-size="14.00" fill="#000000">beq rd25, rd26, @_LABEL_1, @_LABEL_2</text>
</g>
<!-- 0&#45;&gt;1 -->
<g id="edge1" class="edge">
<title>0-&gt;1</title>
<path fill="none" stroke="#000000" d="M162.0505,-687.8188C162.0505,-679.3857 162.0505,-670.4843 162.0505,-661.4314"/>
<polygon fill="#000000" stroke="#000000" points="165.5506,-661.163 162.0505,-651.1631 158.5506,-661.1631 165.5506,-661.163"/>
</g>
<!-- 5 -->
<g id="node3" class="node">
<title>5</title>
<polygon fill="none" stroke="#000000" points="0,-355.1 0,-404.7 82.101,-404.7 82.101,-355.1 0,-355.1"/>
<text text-anchor="middle" x="41.0505" y="-388.1" font-family="Times,serif" font-size="14.00" fill="#000000">_LABEL_1</text>
<polyline fill="none" stroke="#000000" points="0,-379.9 82.101,-379.9 "/>
<text text-anchor="middle" x="41.0505" y="-363.3" font-family="Times,serif" font-size="14.00" fill="#000000">return rd18</text>
</g>
<!-- 1&#45;&gt;5 -->
<g id="edge2" class="edge">
<title>1-&gt;5</title>
<path fill="none" stroke="#000000" d="M90.615,-449.7818C81.2484,-436.5757 72.2435,-423.8795 64.5391,-413.017"/>
<polygon fill="#000000" stroke="#000000" points="67.2972,-410.8557 58.6571,-404.7238 61.5875,-414.9053 67.2972,-410.8557"/>
</g>
<!-- 2 -->
<g id="node4" class="node">
<title>2</title>
<polygon fill="none" stroke="#000000" points="110.8584,-346.7 110.8584,-413.1 213.2426,-413.1 213.2426,-346.7 110.8584,-346.7"/>
<text text-anchor="middle" x="162.0505" y="-396.5" font-family="Times,serif" font-size="14.00" fill="#000000">_LABEL_2</text>
<polyline fill="none" stroke="#000000" points="110.8584,-388.3 213.2426,-388.3 "/>
<text text-anchor="middle" x="162.0505" y="-371.7" font-family="Times,serif" font-size="14.00" fill="#000000">li rd27, #3</text>
<text text-anchor="middle" x="162.0505" y="-354.9" font-family="Times,serif" font-size="14.00" fill="#000000">j @_LABEL_3</text>
</g>
<!-- 1&#45;&gt;2 -->
<g id="edge3" class="edge">
<title>1-&gt;2</title>
<path fill="none" stroke="#000000" d="M162.0505,-449.7818C162.0505,-440.5501 162.0505,-431.5677 162.0505,-423.2866"/>
<polygon fill="#000000" stroke="#000000" points="165.5506,-423.2063 162.0505,-413.2063 158.5506,-423.2063 165.5506,-423.2063"/>
</g>
<!-- 6 -->
<g id="node7" class="node">
<title>6</title>
<polygon fill="none" stroke="#000000" points="2.0505,-251.7 2.0505,-301.3 56.0505,-301.3 56.0505,-251.7 2.0505,-251.7"/>
<text text-anchor="middle" x="28.9867" y="-284.7" font-family="Times,serif" font-size="14.00" fill="#000000">EXIT</text>
<polyline fill="none" stroke="#000000" points="2.0505,-276.5 55.9229,-276.5 "/>
<text text-anchor="middle" x="28.9867" y="-259.9" font-family="Times,serif" font-size="14.00" fill="#000000"> </text>
</g>
<!-- 5&#45;&gt;6 -->
<g id="edge7" class="edge">
<title>5-&gt;6</title>
<path fill="none" stroke="#000000" d="M38.1456,-354.8697C36.6386,-341.8841 34.7728,-325.8072 33.1241,-311.6009"/>
<polygon fill="#000000" stroke="#000000" points="36.5998,-311.188 31.9702,-301.6581 29.6464,-311.995 36.5998,-311.188"/>
</g>
<!-- 3 -->
<g id="node5" class="node">
<title>3</title>
<polygon fill="none" stroke="#000000" points="73.7325,-243.3 73.7325,-309.7 250.3685,-309.7 250.3685,-243.3 73.7325,-243.3"/>
<text text-anchor="middle" x="162.0505" y="-293.1" font-family="Times,serif" font-size="14.00" fill="#000000">_LABEL_3</text>
<polyline fill="none" stroke="#000000" points="73.7325,-284.9 250.3685,-284.9 "/>
<text text-anchor="middle" x="162.0505" y="-268.3" font-family="Times,serif" font-size="14.00" fill="#000000">call rd28, @myfun, ( 27 18 )</text>
<text text-anchor="middle" x="162.0505" y="-251.5" font-family="Times,serif" font-size="14.00" fill="#000000">j @_LABEL_4</text>
</g>
<!-- 2&#45;&gt;3 -->
<g id="edge4" class="edge">
<title>2-&gt;3</title>
<path fill="none" stroke="#000000" d="M162.0505,-346.6144C162.0505,-338.1278 162.0505,-328.8797 162.0505,-319.9667"/>
<polygon fill="#000000" stroke="#000000" points="165.5506,-319.7232 162.0505,-309.7232 158.5506,-319.7232 165.5506,-319.7232"/>
</g>
<!-- 4 -->
<g id="node6" class="node">
<title>4</title>
<polygon fill="none" stroke="#000000" points="132.0873,-89.5 132.0873,-206.3 262.0137,-206.3 262.0137,-89.5 132.0873,-89.5"/>
<text text-anchor="middle" x="197.0505" y="-189.7" font-family="Times,serif" font-size="14.00" fill="#000000">_LABEL_4</text>
<polyline fill="none" stroke="#000000" points="132.0873,-181.5 262.0137,-181.5 "/>
<text text-anchor="middle" x="197.0505" y="-164.9" font-family="Times,serif" font-size="14.00" fill="#000000">mv rd29, rd28</text>
<text text-anchor="middle" x="197.0505" y="-148.1" font-family="Times,serif" font-size="14.00" fill="#000000">li rd30, #1</text>
<text text-anchor="middle" x="197.0505" y="-131.3" font-family="Times,serif" font-size="14.00" fill="#000000">sub rd31, rd19, rd30</text>
<text text-anchor="middle" x="197.0505" y="-114.5" font-family="Times,serif" font-size="14.00" fill="#000000">mv rd32, rd31</text>
<text text-anchor="middle" x="197.0505" y="-97.7" font-family="Times,serif" font-size="14.00" fill="#000000">j @_LABEL_0</text>
</g>
<!-- 3&#45;&gt;4 -->
<g id="edge5" class="edge">
<title>3-&gt;4</title>
<path fill="none" stroke="#000000" d="M171.155,-243.0476C173.4249,-234.7072 175.9418,-225.4593 178.4888,-216.1009"/>
<polygon fill="#000000" stroke="#000000" points="181.8959,-216.9099 181.1449,-206.3417 175.1416,-215.0716 181.8959,-216.9099"/>
</g>
<!-- 4&#45;&gt;1 -->
<g id="edge6" class="edge">
<title>4-&gt;1</title>
<path fill="none" stroke="#000000" d="M242.6879,-206.557C249.4282,-218.0133 255.3443,-230.351 259.0505,-242.8 267.5978,-271.5103 264.1721,-280.6855 259.0505,-310.2 251.3791,-354.4079 234.9633,-400.6414 217.7805,-440.6127"/>
<polygon fill="#000000" stroke="#000000" points="214.5476,-439.2703 213.755,-449.8355 220.9631,-442.0706 214.5476,-439.2703"/>
</g>
<!-- dom0 -->
<g id="node8" class="node">
<title>dom0</title>
<polygon fill="none" stroke="#000000" points="324.723,-728.3 324.723,-764.3 387.378,-764.3 387.378,-728.3 324.723,-728.3"/>
<text text-anchor="middle" x="356.0505" y="-742.1" font-family="Times,serif" font-size="14.00" fill="#000000">ENTRY</text>
</g>
<!-- dom1 -->
<g id="node9" class="node">
<title>dom1</title>
<polygon fill="none" stroke="#000000" points="315,-532.5 315,-568.5 397.101,-568.5 397.101,-532.5 315,-532.5"/>
<text text-anchor="middle" x="356.0505" y="-546.3" font-family="Times,serif" font-size="14.00" fill="#000000">_LABEL_0</text>
</g>
<!-- dom0&#45;&gt;dom1 -->
<g id="edge8" class="edge">
<title>dom0-&gt;dom1</title>
<path fill="none" stroke="#000000" d="M356.0505,-728.2306C356.0505,-693.9897 356.0505,-619.4356 356.0505,-578.6097"/>
<polygon fill="#000000" stroke="#000000" points="359.5506,-578.5257 356.0505,-568.5258 352.5506,-578.5258 359.5506,-578.5257"/>
</g>
<!-- dom2 -->
<g id="node10" class="node">
<title>dom2</title>
<polygon fill="none" stroke="#000000" points="314,-361.9 314,-397.9 396.101,-397.9 396.101,-361.9 314,-361.9"/>
<text text-anchor="middle" x="355.0505" y="-375.7" font-family="Times,serif" font-size="14.00" fill="#000000">_LABEL_2</text>
</g>
<!-- dom1&#45;&gt;dom2 -->
<g id="edge9" class="edge">
<title>dom1-&gt;dom2</title>
<path fill="none" stroke="#000000" d="M355.9435,-532.2428C355.7691,-502.4855 355.4223,-443.3214 355.2159,-408.1216"/>
<polygon fill="#000000" stroke="#000000" points="358.7154,-408.0052 355.1567,-398.0259 351.7155,-408.0463 358.7154,-408.0052"/>
</g>
<!-- dom5 -->
<g id="node13" class="node">
<title>dom5</title>
<polygon fill="none" stroke="#000000" points="414,-361.9 414,-397.9 496.101,-397.9 496.101,-361.9 414,-361.9"/>
<text text-anchor="middle" x="455.0505" y="-375.7" font-family="Times,serif" font-size="14.00" fill="#000000">_LABEL_1</text>
</g>
<!-- dom1&#45;&gt;dom5 -->
<g id="edge12" class="edge">
<title>dom1-&gt;dom5</title>
<path fill="none" stroke="#000000" d="M366.6452,-532.2428C384.1369,-502.1007 419.1375,-441.7864 439.4588,-406.7682"/>
<polygon fill="#000000" stroke="#000000" points="442.54,-408.4318 444.5319,-398.0259 436.4855,-404.9184 442.54,-408.4318"/>
</g>
<!-- dom3 -->
<g id="node11" class="node">
<title>dom3</title>
<polygon fill="none" stroke="#000000" points="314,-258.5 314,-294.5 396.101,-294.5 396.101,-258.5 314,-258.5"/>
<text text-anchor="middle" x="355.0505" y="-272.3" font-family="Times,serif" font-size="14.00" fill="#000000">_LABEL_3</text>
</g>
<!-- dom2&#45;&gt;dom3 -->
<g id="edge10" class="edge">
<title>dom2-&gt;dom3</title>
<path fill="none" stroke="#000000" d="M355.0505,-361.8891C355.0505,-346.1211 355.0505,-322.9478 355.0505,-304.7193"/>
<polygon fill="#000000" stroke="#000000" points="358.5506,-304.6514 355.0505,-294.6514 351.5506,-304.6515 358.5506,-304.6514"/>
</g>
<!-- dom4 -->
<g id="node12" class="node">
<title>dom4</title>
<polygon fill="none" stroke="#000000" points="314,-129.9 314,-165.9 396.101,-165.9 396.101,-129.9 314,-129.9"/>
<text text-anchor="middle" x="355.0505" y="-143.7" font-family="Times,serif" font-size="14.00" fill="#000000">_LABEL_4</text>
</g>
<!-- dom3&#45;&gt;dom4 -->
<g id="edge11" class="edge">
<title>dom3-&gt;dom4</title>
<path fill="none" stroke="#000000" d="M355.0505,-258.3475C355.0505,-236.9975 355.0505,-201.301 355.0505,-176.2838"/>
<polygon fill="#000000" stroke="#000000" points="358.5506,-175.9601 355.0505,-165.9601 351.5506,-175.9602 358.5506,-175.9601"/>
</g>
<!-- dom6 -->
<g id="node14" class="node">
<title>dom6</title>
<polygon fill="none" stroke="#000000" points="428.0505,-258.5 428.0505,-294.5 482.0505,-294.5 482.0505,-258.5 428.0505,-258.5"/>
<text text-anchor="middle" x="454.9867" y="-272.3" font-family="Times,serif" font-size="14.00" fill="#000000">EXIT</text>
</g>
<!-- dom5&#45;&gt;dom6 -->
<g id="edge13" class="edge">
<title>dom5-&gt;dom6</title>
<path fill="none" stroke="#000000" d="M455.0505,-361.8891C455.0505,-346.1211 455.0505,-322.9478 455.0505,-304.7193"/>
<polygon fill="#000000" stroke="#000000" points="458.5506,-304.6514 455.0505,-294.6514 451.5506,-304.6515 458.5506,-304.6514"/>
</g>
<!-- pdom1 -->
<g id="node15" class="node">
<title>pdom1</title>
<polygon fill="none" stroke="#000000" points="560,-361.9 560,-397.9 642.101,-397.9 642.101,-361.9 560,-361.9"/>
<text text-anchor="middle" x="601.0505" y="-375.7" font-family="Times,serif" font-size="14.00" fill="#000000">_LABEL_0</text>
</g>
<!-- pdom0 -->
<g id="node16" class="node">
<title>pdom0</title>
<polygon fill="none" stroke="#000000" points="519.723,-258.5 519.723,-294.5 582.378,-294.5 582.378,-258.5 519.723,-258.5"/>
<text text-anchor="middle" x="551.0505" y="-272.3" font-family="Times,serif" font-size="14.00" fill="#000000">ENTRY</text>
</g>
<!-- pdom1&#45;&gt;pdom0 -->
<g id="edge14" class="edge">
<title>pdom1-&gt;pdom0</title>
<path fill="none" stroke="#000000" d="M592.3412,-361.8891C584.5739,-345.8264 573.0906,-322.0789 564.2045,-303.7024"/>
<polygon fill="#000000" stroke="#000000" points="567.3321,-302.1305 559.8278,-294.6514 561.0302,-305.1778 567.3321,-302.1305"/>
</g>
<!-- pdom4 -->
<g id="node20" class="node">
<title>pdom4</title>
<polygon fill="none" stroke="#000000" points="600,-258.5 600,-294.5 682.101,-294.5 682.101,-258.5 600,-258.5"/>
<text text-anchor="middle" x="641.0505" y="-272.3" font-family="Times,serif" font-size="14.00" fill="#000000">_LABEL_4</text>
</g>
<!-- pdom1&#45;&gt;pdom4 -->
<g id="edge18" class="edge">
<title>pdom1-&gt;pdom4</title>
<path fill="none" stroke="#000000" d="M608.018,-361.8891C614.1748,-345.9737 623.2501,-322.514 630.3311,-304.2096"/>
<polygon fill="#000000" stroke="#000000" points="633.685,-305.2407 634.0287,-294.6514 627.1564,-302.7151 633.685,-305.2407"/>
</g>
<!-- pdom5 -->
<g id="node17" class="node">
<title>pdom5</title>
<polygon fill="none" stroke="#000000" points="560,-532.5 560,-568.5 642.101,-568.5 642.101,-532.5 560,-532.5"/>
<text text-anchor="middle" x="601.0505" y="-546.3" font-family="Times,serif" font-size="14.00" fill="#000000">_LABEL_1</text>
</g>
<!-- pdom5&#45;&gt;pdom1 -->
<g id="edge15" class="edge">
<title>pdom5-&gt;pdom1</title>
<path fill="none" stroke="#000000" d="M601.0505,-532.2428C601.0505,-502.4855 601.0505,-443.3214 601.0505,-408.1216"/>
<polygon fill="#000000" stroke="#000000" points="604.5506,-408.0259 601.0505,-398.0259 597.5506,-408.026 604.5506,-408.0259"/>
</g>
<!-- pdom3 -->
<g id="node18" class="node">
<title>pdom3</title>
<polygon fill="none" stroke="#000000" points="600,-129.9 600,-165.9 682.101,-165.9 682.101,-129.9 600,-129.9"/>
<text text-anchor="middle" x="641.0505" y="-143.7" font-family="Times,serif" font-size="14.00" fill="#000000">_LABEL_3</text>
</g>
<!-- pdom2 -->
<g id="node19" class="node">
<title>pdom2</title>
<polygon fill="none" stroke="#000000" points="600,-16.5 600,-52.5 682.101,-52.5 682.101,-16.5 600,-16.5"/>
<text text-anchor="middle" x="641.0505" y="-30.3" font-family="Times,serif" font-size="14.00" fill="#000000">_LABEL_2</text>
</g>
<!-- pdom3&#45;&gt;pdom2 -->
<g id="edge16" class="edge">
<title>pdom3-&gt;pdom2</title>
<path fill="none" stroke="#000000" d="M641.0505,-129.6803C641.0505,-111.6598 641.0505,-83.8206 641.0505,-62.8971"/>
<polygon fill="#000000" stroke="#000000" points="644.5506,-62.6744 641.0505,-52.6745 637.5506,-62.6745 644.5506,-62.6744"/>
</g>
<!-- pdom4&#45;&gt;pdom3 -->
<g id="edge17" class="edge">
<title>pdom4-&gt;pdom3</title>
<path fill="none" stroke="#000000" d="M641.0505,-258.3475C641.0505,-236.9975 641.0505,-201.301 641.0505,-176.2838"/>
<polygon fill="#000000" stroke="#000000" points="644.5506,-175.9601 641.0505,-165.9601 637.5506,-175.9602 644.5506,-175.9601"/>
</g>
<!-- pdom6 -->
<g id="node21" class="node">
<title>pdom6</title>
<polygon fill="none" stroke="#000000" points="574.0505,-728.3 574.0505,-764.3 628.0505,-764.3 628.0505,-728.3 574.0505,-728.3"/>
<text text-anchor="middle" x="600.9867" y="-742.1" font-family="Times,serif" font-size="14.00" fill="#000000">EXIT</text>
</g>
<!-- pdom6&#45;&gt;pdom5 -->
<g id="edge19" class="edge">
<title>pdom6-&gt;pdom5</title>
<path fill="none" stroke="#000000" d="M601.0505,-728.2306C601.0505,-693.9897 601.0505,-619.4356 601.0505,-578.6097"/>
<polygon fill="#000000" stroke="#000000" points="604.5506,-578.5257 601.0505,-568.5258 597.5506,-578.5258 604.5506,-578.5257"/>
</g>
</g>
</svg>